<mxfile modified="2023-04-05T00:25:39.679Z" host="app.diagrams.net" agent="Mozilla/5.0 (Windows NT 10.0; Win64; x64) AppleWebKit/537.36 (KHTML, like Gecko) Chrome/111.0.0.0 Safari/537.36" etag="MEKnRUn7YzMB9ag9VEfc" version="21.1.4" type="device">
  <diagram id="f106602c-feb2-e66a-4537-3a34d633f6aa" name="Page-1">
    <mxGraphModel dx="1504" dy="1657" grid="1" gridSize="10" guides="1" tooltips="1" connect="1" arrows="1" fold="1" page="1" pageScale="1" pageWidth="1169" pageHeight="827" background="none" math="0" shadow="1">
      <root>
        <mxCell id="0" />
        <mxCell id="1" parent="0" />
        <mxCell id="e-boNH3dfIIxHlk2X5r0-149" value="" style="strokeColor=#000000;shadow=1;strokeWidth=1;rounded=1;absoluteArcSize=1;arcSize=2;" vertex="1" parent="1">
          <mxGeometry x="1752.5" y="2100" width="435" height="220" as="geometry" />
        </mxCell>
        <mxCell id="e-boNH3dfIIxHlk2X5r0-150" value="&lt;b&gt;&lt;font color=&quot;#000000&quot; style=&quot;font-size: 16px;&quot;&gt;Firebase&lt;/font&gt;&lt;/b&gt;" style="sketch=0;dashed=0;connectable=0;html=1;fillColor=#5184F3;strokeColor=none;shape=mxgraph.gcp2.firebase;part=1;labelPosition=right;verticalLabelPosition=middle;align=left;verticalAlign=middle;spacingLeft=5;fontColor=#999999;fontSize=12;" vertex="1" parent="e-boNH3dfIIxHlk2X5r0-149">
          <mxGeometry width="32.4" height="45" relative="1" as="geometry">
            <mxPoint x="5" y="7" as="offset" />
          </mxGeometry>
        </mxCell>
        <object c4Name="" c4Type="" c4Application="" label="&lt;font style=&quot;font-size: 16px&quot;&gt;&lt;b&gt;&lt;div style=&quot;text-align: left&quot;&gt;%c4Name%&lt;/div&gt;&lt;/b&gt;&lt;/font&gt;&lt;div style=&quot;text-align: left&quot;&gt;[%c4Application%]&lt;/div&gt;" placeholders="1" id="e-boNH3dfIIxHlk2X5r0-136">
          <mxCell style="rounded=1;fontSize=11;whiteSpace=wrap;html=1;arcSize=20;labelBackgroundColor=none;align=left;verticalAlign=bottom;labelBorderColor=none;spacingTop=0;spacing=10;metaEdit=1;rotatable=0;perimeter=rectanglePerimeter;labelPadding=0;allowArrows=0;connectable=0;expand=0;recursiveResize=0;editable=1;pointerEvents=0;absoluteArcSize=1;points=[[0.25,0,0],[0.5,0,0],[0.75,0,0],[1,0.25,0],[1,0.5,0],[1,0.75,0],[0.75,1,0],[0.5,1,0],[0.25,1,0],[0,0.75,0],[0,0.5,0],[0,0.25,0]];strokeWidth=1;strokeColor=#000000;shadow=1;fontColor=#ffffff;" vertex="1" parent="1">
            <mxGeometry x="1140" y="1760" width="1590" height="270" as="geometry" />
          </mxCell>
        </object>
        <object c4Name="" c4Type="" c4Application="" label="&lt;font style=&quot;font-size: 16px&quot;&gt;&lt;b&gt;&lt;div style=&quot;text-align: left&quot;&gt;%c4Name%&lt;/div&gt;&lt;/b&gt;&lt;/font&gt;&lt;div style=&quot;text-align: left&quot;&gt;[%c4Application%]&lt;/div&gt;" placeholders="1" id="e-boNH3dfIIxHlk2X5r0-52">
          <mxCell style="rounded=1;fontSize=11;whiteSpace=wrap;html=1;arcSize=20;labelBackgroundColor=none;align=left;verticalAlign=bottom;labelBorderColor=none;spacingTop=0;spacing=10;metaEdit=1;rotatable=0;perimeter=rectanglePerimeter;labelPadding=0;allowArrows=0;connectable=0;expand=0;recursiveResize=0;editable=1;pointerEvents=0;absoluteArcSize=1;points=[[0.25,0,0],[0.5,0,0],[0.75,0,0],[1,0.25,0],[1,0.5,0],[1,0.75,0],[0.75,1,0],[0.5,1,0],[0.25,1,0],[0,0.75,0],[0,0.5,0],[0,0.25,0]];strokeWidth=1;shadow=1;glass=0;fillStyle=auto;fontColor=#ffffff;" vertex="1" parent="1">
            <mxGeometry x="830" y="490" width="2190" height="1120" as="geometry" />
          </mxCell>
        </object>
        <object placeholders="1" c4Name="User" c4Type="Person" c4Description="Regular user of the application" label="&lt;font style=&quot;font-size: 16px&quot;&gt;&lt;b&gt;%c4Name%&lt;/b&gt;&lt;/font&gt;&lt;div&gt;[%c4Type%]&lt;/div&gt;&lt;br&gt;&lt;div&gt;&lt;font style=&quot;font-size: 11px&quot;&gt;&lt;font color=&quot;#cccccc&quot;&gt;%c4Description%&lt;/font&gt;&lt;/div&gt;" id="e-boNH3dfIIxHlk2X5r0-14">
          <mxCell style="html=1;fontSize=11;dashed=0;whiteSpace=wrap;fillColor=#083F75;strokeColor=#06315C;fontColor=#ffffff;shape=mxgraph.c4.person2;align=center;metaEdit=1;points=[[0.5,0,0],[1,0.5,0],[1,0.75,0],[0.75,1,0],[0.5,1,0],[0.25,1,0],[0,0.75,0],[0,0.5,0]];resizable=0;" vertex="1" parent="1">
            <mxGeometry x="1610" y="-90" width="200" height="180" as="geometry" />
          </mxCell>
        </object>
        <object placeholders="1" c4Name="Admin" c4Type="Person" c4Description="User with administrator privileges" label="&lt;font style=&quot;font-size: 16px&quot;&gt;&lt;b&gt;%c4Name%&lt;/b&gt;&lt;/font&gt;&lt;div&gt;[%c4Type%]&lt;/div&gt;&lt;br&gt;&lt;div&gt;&lt;font style=&quot;font-size: 11px&quot;&gt;&lt;font color=&quot;#cccccc&quot;&gt;%c4Description%&lt;/font&gt;&lt;/div&gt;" id="e-boNH3dfIIxHlk2X5r0-38">
          <mxCell style="html=1;fontSize=11;dashed=0;whiteSpace=wrap;fillColor=#083F75;strokeColor=#06315C;fontColor=#ffffff;shape=mxgraph.c4.person2;align=center;metaEdit=1;points=[[0.5,0,0],[1,0.5,0],[1,0.75,0],[0.75,1,0],[0.5,1,0],[0.25,1,0],[0,0.75,0],[0,0.5,0]];resizable=0;" vertex="1" parent="1">
            <mxGeometry x="1850" y="-90" width="200" height="180" as="geometry" />
          </mxCell>
        </object>
        <object placeholders="1" c4Name="Moderator" c4Type="Person" c4Description="User who moderates the platform for toxicity" label="&lt;font style=&quot;font-size: 16px&quot;&gt;&lt;b&gt;%c4Name%&lt;/b&gt;&lt;/font&gt;&lt;div&gt;[%c4Type%]&lt;/div&gt;&lt;br&gt;&lt;div&gt;&lt;font style=&quot;font-size: 11px&quot;&gt;&lt;font color=&quot;#cccccc&quot;&gt;%c4Description%&lt;/font&gt;&lt;/div&gt;" id="e-boNH3dfIIxHlk2X5r0-39">
          <mxCell style="html=1;fontSize=11;dashed=0;whiteSpace=wrap;fillColor=#083F75;strokeColor=#06315C;fontColor=#ffffff;shape=mxgraph.c4.person2;align=center;metaEdit=1;points=[[0.5,0,0],[1,0.5,0],[1,0.75,0],[0.75,1,0],[0.5,1,0],[0.25,1,0],[0,0.75,0],[0,0.5,0]];resizable=0;" vertex="1" parent="1">
            <mxGeometry x="2090" y="-90" width="200" height="180" as="geometry" />
          </mxCell>
        </object>
        <mxCell id="e-boNH3dfIIxHlk2X5r0-40" value="" style="endArrow=classic;html=1;rounded=0;exitX=0.5;exitY=1;exitDx=0;exitDy=0;exitPerimeter=0;" edge="1" parent="1" source="e-boNH3dfIIxHlk2X5r0-14">
          <mxGeometry width="50" height="50" relative="1" as="geometry">
            <mxPoint x="1740" y="151" as="sourcePoint" />
            <mxPoint x="1950" y="211" as="targetPoint" />
            <Array as="points">
              <mxPoint x="1710" y="141" />
              <mxPoint x="1830" y="141" />
              <mxPoint x="1950" y="141" />
            </Array>
          </mxGeometry>
        </mxCell>
        <mxCell id="e-boNH3dfIIxHlk2X5r0-41" value="" style="endArrow=none;html=1;rounded=0;entryX=0.5;entryY=1;entryDx=0;entryDy=0;entryPerimeter=0;exitX=0.5;exitY=1;exitDx=0;exitDy=0;exitPerimeter=0;" edge="1" parent="1" source="e-boNH3dfIIxHlk2X5r0-39" target="e-boNH3dfIIxHlk2X5r0-38">
          <mxGeometry width="50" height="50" relative="1" as="geometry">
            <mxPoint x="2350" y="251" as="sourcePoint" />
            <mxPoint x="1790" y="101" as="targetPoint" />
            <Array as="points">
              <mxPoint x="2190" y="141" />
              <mxPoint x="1950" y="141" />
            </Array>
          </mxGeometry>
        </mxCell>
        <object placeholders="1" c4Type="Web Application" c4Container="Container" c4Technology="Next.js" c4Description="Single page application (Client)" label="&lt;font style=&quot;font-size: 16px&quot;&gt;&lt;b&gt;%c4Type%&lt;/b&gt;&lt;/font&gt;&lt;div&gt;[%c4Container%:&amp;nbsp;%c4Technology%]&lt;/div&gt;&lt;br&gt;&lt;div&gt;&lt;font style=&quot;font-size: 11px&quot;&gt;&lt;font color=&quot;#E6E6E6&quot;&gt;%c4Description%&lt;/font&gt;&lt;/div&gt;" id="e-boNH3dfIIxHlk2X5r0-42">
          <mxCell style="shape=mxgraph.c4.webBrowserContainer2;whiteSpace=wrap;html=1;boundedLbl=1;rounded=0;labelBackgroundColor=none;strokeColor=#118ACD;fillColor=#23A2D9;strokeColor=#118ACD;strokeColor2=#0E7DAD;fontSize=12;fontColor=#ffffff;align=center;metaEdit=1;points=[[0.5,0,0],[1,0.25,0],[1,0.5,0],[1,0.75,0],[0.5,1,0],[0,0.75,0],[0,0.5,0],[0,0.25,0]];resizable=0;" vertex="1" parent="1">
            <mxGeometry x="1830" y="211" width="240" height="160" as="geometry" />
          </mxCell>
        </object>
        <object placeholders="1" c4Type="Tweet Service" c4Container="Container" c4Technology="Express.js" c4Description="Manages posting, deleting, and liking of tweets." label="&lt;font style=&quot;font-size: 16px&quot;&gt;&lt;b&gt;%c4Type%&lt;/b&gt;&lt;/font&gt;&lt;div&gt;[%c4Container%:&amp;nbsp;%c4Technology%]&lt;/div&gt;&lt;br&gt;&lt;div&gt;&lt;font style=&quot;font-size: 11px&quot;&gt;&lt;font color=&quot;#E6E6E6&quot;&gt;%c4Description%&lt;/font&gt;&lt;/font&gt;&lt;/div&gt;" id="e-boNH3dfIIxHlk2X5r0-43">
          <mxCell style="shape=hexagon;size=50;perimeter=hexagonPerimeter2;whiteSpace=wrap;html=1;fixedSize=1;rounded=1;labelBackgroundColor=none;fillColor=#23A2D9;fontSize=12;fontColor=#ffffff;align=center;strokeColor=#0E7DAD;metaEdit=1;points=[[0.5,0,0],[1,0.25,0],[1,0.5,0],[1,0.75,0],[0.5,1,0],[0,0.75,0],[0,0.5,0],[0,0.25,0]];resizable=0;" vertex="1" parent="1">
            <mxGeometry x="1330" y="781.5" width="200" height="170" as="geometry" />
          </mxCell>
        </object>
        <object placeholders="1" c4Type="Message Broker" c4Container="Container" c4Technology="RabbitMQ" c4Description="Handles Media Uploads" label="&lt;font style=&quot;font-size: 16px&quot;&gt;&lt;b&gt;%c4Type%&lt;/b&gt;&lt;/font&gt;&lt;div&gt;[%c4Container%:&amp;nbsp;%c4Technology%]&lt;/div&gt;&lt;br&gt;&lt;div&gt;&lt;font style=&quot;font-size: 11px&quot;&gt;&lt;font color=&quot;#E6E6E6&quot;&gt;%c4Description%&lt;/font&gt;&lt;/div&gt;" id="e-boNH3dfIIxHlk2X5r0-44">
          <mxCell style="shape=cylinder3;size=15;direction=south;whiteSpace=wrap;html=1;boundedLbl=1;rounded=0;labelBackgroundColor=none;fillColor=#23A2D9;fontSize=12;fontColor=#ffffff;align=center;strokeColor=#0E7DAD;metaEdit=1;points=[[0.5,0,0],[1,0.25,0],[1,0.5,0],[1,0.75,0],[0.5,1,0],[0,0.75,0],[0,0.5,0],[0,0.25,0]];resizable=0;" vertex="1" parent="1">
            <mxGeometry x="1490" y="1015" width="240" height="120" as="geometry" />
          </mxCell>
        </object>
        <object placeholders="1" c4Type="Tweet Database" c4Container="Container" c4Technology="MongoDB" c4Description="Stores information about tweets and likes" label="&lt;font style=&quot;font-size: 16px&quot;&gt;&lt;b&gt;%c4Type%&lt;/b&gt;&lt;/font&gt;&lt;div&gt;[%c4Container%:&amp;nbsp;%c4Technology%]&lt;/div&gt;&lt;br&gt;&lt;div&gt;&lt;font style=&quot;font-size: 11px&quot;&gt;&lt;font color=&quot;#E6E6E6&quot;&gt;%c4Description%&lt;/font&gt;&lt;/div&gt;" id="e-boNH3dfIIxHlk2X5r0-45">
          <mxCell style="shape=cylinder3;size=15;whiteSpace=wrap;html=1;boundedLbl=1;rounded=0;labelBackgroundColor=none;fillColor=#23A2D9;fontSize=12;fontColor=#ffffff;align=center;strokeColor=#0E7DAD;metaEdit=1;points=[[0.5,0,0],[1,0.25,0],[1,0.5,0],[1,0.75,0],[0.5,1,0],[0,0.75,0],[0,0.5,0],[0,0.25,0]];resizable=0;" vertex="1" parent="1">
            <mxGeometry x="1280" y="1860" width="240" height="120" as="geometry" />
          </mxCell>
        </object>
        <object placeholders="1" c4Name="API Gateway" c4Type="Container" c4Technology="TBD" c4Description="Handles load balancing and groups all endpoints into a single endpoint." label="&lt;font style=&quot;font-size: 16px&quot;&gt;&lt;b&gt;%c4Name%&lt;/b&gt;&lt;/font&gt;&lt;div&gt;[%c4Type%: %c4Technology%]&lt;/div&gt;&lt;br&gt;&lt;div&gt;&lt;font style=&quot;font-size: 11px&quot;&gt;&lt;font color=&quot;#E6E6E6&quot;&gt;%c4Description%&lt;/font&gt;&lt;/div&gt;" id="e-boNH3dfIIxHlk2X5r0-48">
          <mxCell style="rounded=1;whiteSpace=wrap;html=1;fontSize=11;labelBackgroundColor=none;fillColor=#23A2D9;fontColor=#ffffff;align=center;arcSize=10;strokeColor=#0E7DAD;metaEdit=1;resizable=0;points=[[0.25,0,0],[0.5,0,0],[0.75,0,0],[1,0.25,0],[1,0.5,0],[1,0.75,0],[0.75,1,0],[0.5,1,0],[0.25,1,0],[0,0.75,0],[0,0.5,0],[0,0.25,0]];" vertex="1" parent="1">
            <mxGeometry x="1830" y="590" width="240" height="120" as="geometry" />
          </mxCell>
        </object>
        <object placeholders="1" c4Type="Upload Service" c4Container="Container" c4Technology="Express.js" c4Description="Handles uploading of images and videos." label="&lt;font style=&quot;font-size: 16px&quot;&gt;&lt;b&gt;%c4Type%&lt;/b&gt;&lt;/font&gt;&lt;div&gt;[%c4Container%:&amp;nbsp;%c4Technology%]&lt;/div&gt;&lt;br&gt;&lt;div&gt;&lt;font style=&quot;font-size: 11px&quot;&gt;&lt;font color=&quot;#E6E6E6&quot;&gt;%c4Description%&lt;/font&gt;&lt;/div&gt;" id="e-boNH3dfIIxHlk2X5r0-49">
          <mxCell style="shape=hexagon;size=50;perimeter=hexagonPerimeter2;whiteSpace=wrap;html=1;fixedSize=1;rounded=1;labelBackgroundColor=none;fillColor=#23A2D9;fontSize=12;fontColor=#ffffff;align=center;strokeColor=#0E7DAD;metaEdit=1;points=[[0.5,0,0],[1,0.25,0],[1,0.5,0],[1,0.75,0],[0.5,1,0],[0,0.75,0],[0,0.5,0],[0,0.25,0]];resizable=0;" vertex="1" parent="1">
            <mxGeometry x="1680" y="781.5" width="200" height="170" as="geometry" />
          </mxCell>
        </object>
        <object placeholders="1" c4Type="Search Service" c4Container="Container" c4Technology="Express.js" c4Description="Handles searching of tweets based on keywords and hashtags" label="&lt;font style=&quot;font-size: 16px&quot;&gt;&lt;b&gt;%c4Type%&lt;/b&gt;&lt;/font&gt;&lt;div&gt;[%c4Container%:&amp;nbsp;%c4Technology%]&lt;/div&gt;&lt;br&gt;&lt;div&gt;&lt;font style=&quot;font-size: 11px&quot;&gt;&lt;font color=&quot;#E6E6E6&quot;&gt;%c4Description%&lt;/font&gt;&lt;/div&gt;" id="e-boNH3dfIIxHlk2X5r0-51">
          <mxCell style="shape=hexagon;size=50;perimeter=hexagonPerimeter2;whiteSpace=wrap;html=1;fixedSize=1;rounded=1;labelBackgroundColor=none;fillColor=#23A2D9;fontSize=12;fontColor=#ffffff;align=center;strokeColor=#0E7DAD;metaEdit=1;points=[[0.5,0,0],[1,0.25,0],[1,0.5,0],[1,0.75,0],[0.5,1,0],[0,0.75,0],[0,0.5,0],[0,0.25,0]];resizable=0;" vertex="1" parent="1">
            <mxGeometry x="2740" y="790" width="200" height="170" as="geometry" />
          </mxCell>
        </object>
        <object placeholders="1" c4Type="Following Service" c4Container="Container" c4Technology="Express.js" c4Description="Handles following and unfollowing of users" label="&lt;font style=&quot;font-size: 16px&quot;&gt;&lt;b&gt;%c4Type%&lt;/b&gt;&lt;/font&gt;&lt;div&gt;[%c4Container%:&amp;nbsp;%c4Technology%]&lt;/div&gt;&lt;br&gt;&lt;div&gt;&lt;font style=&quot;font-size: 11px&quot;&gt;&lt;font color=&quot;#E6E6E6&quot;&gt;%c4Description%&lt;/font&gt;&lt;/div&gt;" id="e-boNH3dfIIxHlk2X5r0-53">
          <mxCell style="shape=hexagon;size=50;perimeter=hexagonPerimeter2;whiteSpace=wrap;html=1;fixedSize=1;rounded=1;labelBackgroundColor=none;fillColor=#23A2D9;fontSize=12;fontColor=#ffffff;align=center;strokeColor=#0E7DAD;metaEdit=1;points=[[0.5,0,0],[1,0.25,0],[1,0.5,0],[1,0.75,0],[0.5,1,0],[0,0.75,0],[0,0.5,0],[0,0.25,0]];resizable=0;" vertex="1" parent="1">
            <mxGeometry x="2063.5" y="790" width="200" height="170" as="geometry" />
          </mxCell>
        </object>
        <object placeholders="1" c4Type="User Service" c4Container="Container" c4Technology="Express.js" c4Description="Handles adding, editing, and removing users" label="&lt;font style=&quot;font-size: 16px&quot;&gt;&lt;b&gt;%c4Type%&lt;/b&gt;&lt;/font&gt;&lt;div&gt;[%c4Container%:&amp;nbsp;%c4Technology%]&lt;/div&gt;&lt;br&gt;&lt;div&gt;&lt;font style=&quot;font-size: 11px&quot;&gt;&lt;font color=&quot;#E6E6E6&quot;&gt;%c4Description%&lt;/font&gt;&lt;/div&gt;" id="e-boNH3dfIIxHlk2X5r0-54">
          <mxCell style="shape=hexagon;size=50;perimeter=hexagonPerimeter2;whiteSpace=wrap;html=1;fixedSize=1;rounded=1;labelBackgroundColor=none;fillColor=#23A2D9;fontSize=12;fontColor=#ffffff;align=center;strokeColor=#0E7DAD;metaEdit=1;points=[[0.5,0,0],[1,0.25,0],[1,0.5,0],[1,0.75,0],[0.5,1,0],[0,0.75,0],[0,0.5,0],[0,0.25,0]];resizable=0;" vertex="1" parent="1">
            <mxGeometry x="2416.5" y="790" width="200" height="170" as="geometry" />
          </mxCell>
        </object>
        <mxCell id="e-boNH3dfIIxHlk2X5r0-56" value="" style="endArrow=classic;html=1;rounded=0;exitX=0.5;exitY=1;exitDx=0;exitDy=0;exitPerimeter=0;entryX=0.5;entryY=0;entryDx=0;entryDy=0;entryPerimeter=0;" edge="1" parent="1" source="e-boNH3dfIIxHlk2X5r0-49" target="e-boNH3dfIIxHlk2X5r0-44">
          <mxGeometry width="50" height="50" relative="1" as="geometry">
            <mxPoint x="1770" y="660" as="sourcePoint" />
            <mxPoint x="1330" y="1100" as="targetPoint" />
            <Array as="points">
              <mxPoint x="1780" y="1075" />
            </Array>
          </mxGeometry>
        </mxCell>
        <mxCell id="e-boNH3dfIIxHlk2X5r0-57" value="" style="endArrow=classic;html=1;rounded=0;exitX=0.5;exitY=1;exitDx=0;exitDy=0;exitPerimeter=0;entryX=0.5;entryY=1;entryDx=0;entryDy=0;entryPerimeter=0;" edge="1" parent="1" source="e-boNH3dfIIxHlk2X5r0-43" target="e-boNH3dfIIxHlk2X5r0-44">
          <mxGeometry width="50" height="50" relative="1" as="geometry">
            <mxPoint x="1780" y="960" as="sourcePoint" />
            <mxPoint x="1360" y="1080" as="targetPoint" />
            <Array as="points">
              <mxPoint x="1430" y="1075" />
            </Array>
          </mxGeometry>
        </mxCell>
        <object placeholders="1" c4Name="In-memory Cache" c4Type="Container: Redis" c4Description="Caches popular tweets and tweet-related data in Redis to reduce database queries and improve performance." label="&lt;font style=&quot;font-size: 16px&quot;&gt;&lt;b&gt;%c4Name%&lt;/b&gt;&lt;/font&gt;&lt;div&gt;[%c4Type%]&lt;/div&gt;&lt;br&gt;&lt;div&gt;&lt;font style=&quot;font-size: 11px&quot;&gt;&lt;font color=&quot;#cccccc&quot;&gt;%c4Description%&lt;/font&gt;&lt;/div&gt;" id="e-boNH3dfIIxHlk2X5r0-64">
          <mxCell style="rounded=1;whiteSpace=wrap;html=1;labelBackgroundColor=none;fillColor=#1061B0;fontColor=#ffffff;align=center;arcSize=0;strokeColor=#0D5091;metaEdit=1;resizable=0;points=[[0.25,0,0],[0.5,0,0],[0.75,0,0],[1,0.25,0],[1,0.5,0],[1,0.75,0],[0.75,1,0],[0.5,1,0],[0.25,1,0],[0,0.75,0],[0,0.5,0],[0,0.25,0]];" vertex="1" parent="1">
            <mxGeometry x="1280" y="1380" width="240" height="120" as="geometry" />
          </mxCell>
        </object>
        <mxCell id="e-boNH3dfIIxHlk2X5r0-65" value="" style="endArrow=classic;html=1;rounded=0;entryX=0.5;entryY=0;entryDx=0;entryDy=0;entryPerimeter=0;exitX=0.352;exitY=0.999;exitDx=0;exitDy=0;exitPerimeter=0;" edge="1" parent="1" source="e-boNH3dfIIxHlk2X5r0-43" target="e-boNH3dfIIxHlk2X5r0-64">
          <mxGeometry width="50" height="50" relative="1" as="geometry">
            <mxPoint x="1110" y="1010" as="sourcePoint" />
            <mxPoint x="1380" y="1100" as="targetPoint" />
          </mxGeometry>
        </mxCell>
        <mxCell id="e-boNH3dfIIxHlk2X5r0-66" value="" style="endArrow=classic;html=1;rounded=0;entryX=0.5;entryY=0;entryDx=0;entryDy=0;entryPerimeter=0;exitX=0.5;exitY=1;exitDx=0;exitDy=0;exitPerimeter=0;" edge="1" parent="1" source="e-boNH3dfIIxHlk2X5r0-64" target="e-boNH3dfIIxHlk2X5r0-45">
          <mxGeometry width="50" height="50" relative="1" as="geometry">
            <mxPoint x="1280" y="1250" as="sourcePoint" />
            <mxPoint x="1160" y="1310" as="targetPoint" />
            <Array as="points" />
          </mxGeometry>
        </mxCell>
        <object placeholders="1" c4Type="Media Database" c4Container="Container" c4Technology="MongoDB" c4Description="Stores information about images and videos" label="&lt;font style=&quot;font-size: 16px&quot;&gt;&lt;b&gt;%c4Type%&lt;/b&gt;&lt;/font&gt;&lt;div&gt;[%c4Container%:&amp;nbsp;%c4Technology%]&lt;/div&gt;&lt;br&gt;&lt;div&gt;&lt;font style=&quot;font-size: 11px&quot;&gt;&lt;font color=&quot;#E6E6E6&quot;&gt;%c4Description%&lt;/font&gt;&lt;/div&gt;" id="e-boNH3dfIIxHlk2X5r0-67">
          <mxCell style="shape=cylinder3;size=15;whiteSpace=wrap;html=1;boundedLbl=1;rounded=0;labelBackgroundColor=none;fillColor=#23A2D9;fontSize=12;fontColor=#ffffff;align=center;strokeColor=#0E7DAD;metaEdit=1;points=[[0.5,0,0],[1,0.25,0],[1,0.5,0],[1,0.75,0],[0.5,1,0],[0,0.75,0],[0,0.5,0],[0,0.25,0]];resizable=0;" vertex="1" parent="1">
            <mxGeometry x="1680" y="1860" width="240" height="120" as="geometry" />
          </mxCell>
        </object>
        <mxCell id="e-boNH3dfIIxHlk2X5r0-68" value="" style="endArrow=classic;html=1;rounded=0;entryX=0.5;entryY=0;entryDx=0;entryDy=0;entryPerimeter=0;exitX=0.352;exitY=0.999;exitDx=0;exitDy=0;exitPerimeter=0;" edge="1" parent="1" target="e-boNH3dfIIxHlk2X5r0-67">
          <mxGeometry width="50" height="50" relative="1" as="geometry">
            <mxPoint x="1800" y="951.5" as="sourcePoint" />
            <mxPoint x="1800" y="1301.5" as="targetPoint" />
          </mxGeometry>
        </mxCell>
        <object placeholders="1" c4Type="Message Broker" c4Container="Container" c4Technology="RabbitMQ" c4Description="Handles user-related events" label="&lt;font style=&quot;font-size: 16px&quot;&gt;&lt;b&gt;%c4Type%&lt;/b&gt;&lt;/font&gt;&lt;div&gt;[%c4Container%:&amp;nbsp;%c4Technology%]&lt;/div&gt;&lt;br&gt;&lt;div&gt;&lt;font style=&quot;font-size: 11px&quot;&gt;&lt;font color=&quot;#E6E6E6&quot;&gt;%c4Description%&lt;/font&gt;&lt;/div&gt;" id="e-boNH3dfIIxHlk2X5r0-69">
          <mxCell style="shape=cylinder3;size=15;direction=south;whiteSpace=wrap;html=1;boundedLbl=1;rounded=0;labelBackgroundColor=none;fillColor=#23A2D9;fontSize=12;fontColor=#ffffff;align=center;strokeColor=#0E7DAD;metaEdit=1;points=[[0.5,0,0],[1,0.25,0],[1,0.5,0],[1,0.75,0],[0.5,1,0],[0,0.75,0],[0,0.5,0],[0,0.25,0]];resizable=0;" vertex="1" parent="1">
            <mxGeometry x="2210" y="1030" width="240" height="120" as="geometry" />
          </mxCell>
        </object>
        <object placeholders="1" c4Type="Timeline Service" c4Container="Container" c4Technology="Express.js" c4Description="Handles reading of user and home timelines" label="&lt;font style=&quot;font-size: 16px&quot;&gt;&lt;b&gt;%c4Type%&lt;/b&gt;&lt;/font&gt;&lt;div&gt;[%c4Container%:&amp;nbsp;%c4Technology%]&lt;/div&gt;&lt;br&gt;&lt;div&gt;&lt;font style=&quot;font-size: 11px&quot;&gt;&lt;font color=&quot;#E6E6E6&quot;&gt;%c4Description%&lt;/font&gt;&lt;/div&gt;" id="e-boNH3dfIIxHlk2X5r0-70">
          <mxCell style="shape=hexagon;size=50;perimeter=hexagonPerimeter2;whiteSpace=wrap;html=1;fixedSize=1;rounded=1;labelBackgroundColor=none;fillColor=#23A2D9;fontSize=12;fontColor=#ffffff;align=center;strokeColor=#0E7DAD;metaEdit=1;points=[[0.5,0,0],[1,0.25,0],[1,0.5,0],[1,0.75,0],[0.5,1,0],[0,0.75,0],[0,0.5,0],[0,0.25,0]];resizable=0;" vertex="1" parent="1">
            <mxGeometry x="940" y="781.5" width="200" height="170" as="geometry" />
          </mxCell>
        </object>
        <object placeholders="1" c4Name="In-memory Cache" c4Type="Container: Redis" c4Description="Caches user timelines in Redis to reduce database queries and provide faster timeline retrieval." label="&lt;font style=&quot;font-size: 16px&quot;&gt;&lt;b&gt;%c4Name%&lt;/b&gt;&lt;/font&gt;&lt;div&gt;[%c4Type%]&lt;/div&gt;&lt;br&gt;&lt;div&gt;&lt;font style=&quot;font-size: 11px&quot;&gt;&lt;font color=&quot;#cccccc&quot;&gt;%c4Description%&lt;/font&gt;&lt;/div&gt;" id="e-boNH3dfIIxHlk2X5r0-71">
          <mxCell style="rounded=1;whiteSpace=wrap;html=1;labelBackgroundColor=none;fillColor=#1061B0;fontColor=#ffffff;align=center;arcSize=0;strokeColor=#0D5091;metaEdit=1;resizable=0;points=[[0.25,0,0],[0.5,0,0],[0.75,0,0],[1,0.25,0],[1,0.5,0],[1,0.75,0],[0.75,1,0],[0.5,1,0],[0.25,1,0],[0,0.75,0],[0,0.5,0],[0,0.25,0]];" vertex="1" parent="1">
            <mxGeometry x="890" y="1380" width="240" height="120" as="geometry" />
          </mxCell>
        </object>
        <mxCell id="e-boNH3dfIIxHlk2X5r0-72" value="" style="endArrow=classic;html=1;rounded=0;entryX=0;entryY=0.5;entryDx=0;entryDy=0;entryPerimeter=0;exitX=0;exitY=0.5;exitDx=0;exitDy=0;exitPerimeter=0;" edge="1" parent="1" source="e-boNH3dfIIxHlk2X5r0-43" target="e-boNH3dfIIxHlk2X5r0-74">
          <mxGeometry width="50" height="50" relative="1" as="geometry">
            <mxPoint x="1300" y="910" as="sourcePoint" />
            <mxPoint x="1230" y="1000" as="targetPoint" />
            <Array as="points">
              <mxPoint x="1230" y="866" />
            </Array>
          </mxGeometry>
        </mxCell>
        <object placeholders="1" c4Type="Message Broker" c4Container="Container" c4Technology="RabbitMQ" c4Description="Handles tweet events (post, delete, like)" label="&lt;font style=&quot;font-size: 16px&quot;&gt;&lt;b&gt;%c4Type%&lt;/b&gt;&lt;/font&gt;&lt;div&gt;[%c4Container%:&amp;nbsp;%c4Technology%]&lt;/div&gt;&lt;br&gt;&lt;div&gt;&lt;font style=&quot;font-size: 11px&quot;&gt;&lt;font color=&quot;#E6E6E6&quot;&gt;%c4Description%&lt;/font&gt;&lt;/div&gt;" id="e-boNH3dfIIxHlk2X5r0-74">
          <mxCell style="shape=cylinder3;size=15;direction=south;whiteSpace=wrap;html=1;boundedLbl=1;rounded=0;labelBackgroundColor=none;fillColor=#23A2D9;fontSize=12;fontColor=#ffffff;align=center;strokeColor=#0E7DAD;metaEdit=1;points=[[0.5,0,0],[1,0.25,0],[1,0.5,0],[1,0.75,0],[0.5,1,0],[0,0.75,0],[0,0.5,0],[0,0.25,0]];resizable=0;" vertex="1" parent="1">
            <mxGeometry x="1110" y="1110" width="240" height="120" as="geometry" />
          </mxCell>
        </object>
        <mxCell id="e-boNH3dfIIxHlk2X5r0-76" value="" style="endArrow=classic;html=1;rounded=0;entryX=0.5;entryY=1;entryDx=0;entryDy=0;entryPerimeter=0;exitX=0.5;exitY=1;exitDx=0;exitDy=0;exitPerimeter=0;" edge="1" parent="1" source="e-boNH3dfIIxHlk2X5r0-70" target="e-boNH3dfIIxHlk2X5r0-74">
          <mxGeometry width="50" height="50" relative="1" as="geometry">
            <mxPoint x="1340" y="877" as="sourcePoint" />
            <mxPoint x="1240" y="1100" as="targetPoint" />
            <Array as="points">
              <mxPoint x="1040" y="1170" />
            </Array>
          </mxGeometry>
        </mxCell>
        <mxCell id="e-boNH3dfIIxHlk2X5r0-77" value="" style="endArrow=classic;html=1;rounded=0;entryX=0.5;entryY=0;entryDx=0;entryDy=0;entryPerimeter=0;exitX=0.355;exitY=1.006;exitDx=0;exitDy=0;exitPerimeter=0;" edge="1" parent="1" source="e-boNH3dfIIxHlk2X5r0-70" target="e-boNH3dfIIxHlk2X5r0-71">
          <mxGeometry width="50" height="50" relative="1" as="geometry">
            <mxPoint x="1410" y="961" as="sourcePoint" />
            <mxPoint x="1410" y="1330" as="targetPoint" />
          </mxGeometry>
        </mxCell>
        <mxCell id="e-boNH3dfIIxHlk2X5r0-79" value="" style="endArrow=classic;html=1;rounded=0;exitX=0.324;exitY=1;exitDx=0;exitDy=0;exitPerimeter=0;entryX=0.5;entryY=0;entryDx=0;entryDy=0;entryPerimeter=0;" edge="1" parent="1" source="e-boNH3dfIIxHlk2X5r0-51" target="e-boNH3dfIIxHlk2X5r0-74">
          <mxGeometry width="50" height="50" relative="1" as="geometry">
            <mxPoint x="2150" y="960" as="sourcePoint" />
            <mxPoint x="1350" y="1240" as="targetPoint" />
            <Array as="points">
              <mxPoint x="2805" y="1170" />
              <mxPoint x="2130" y="1170" />
            </Array>
          </mxGeometry>
        </mxCell>
        <object placeholders="1" c4Type="Followers Database" c4Container="Container" c4Technology="MongoDB" c4Description="Stores information about following" label="&lt;font style=&quot;font-size: 16px&quot;&gt;&lt;b&gt;%c4Type%&lt;/b&gt;&lt;/font&gt;&lt;div&gt;[%c4Container%:&amp;nbsp;%c4Technology%]&lt;/div&gt;&lt;br&gt;&lt;div&gt;&lt;font style=&quot;font-size: 11px&quot;&gt;&lt;font color=&quot;#E6E6E6&quot;&gt;%c4Description%&lt;/font&gt;&lt;/div&gt;" id="e-boNH3dfIIxHlk2X5r0-82">
          <mxCell style="shape=cylinder3;size=15;whiteSpace=wrap;html=1;boundedLbl=1;rounded=0;labelBackgroundColor=none;fillColor=#23A2D9;fontSize=12;fontColor=#ffffff;align=center;strokeColor=#0E7DAD;metaEdit=1;points=[[0.5,0,0],[1,0.25,0],[1,0.5,0],[1,0.75,0],[0.5,1,0],[0,0.75,0],[0,0.5,0],[0,0.25,0]];resizable=0;" vertex="1" parent="1">
            <mxGeometry x="2018.5" y="1860" width="240" height="120" as="geometry" />
          </mxCell>
        </object>
        <mxCell id="e-boNH3dfIIxHlk2X5r0-83" value="" style="endArrow=classic;html=1;rounded=0;exitX=0.349;exitY=1.006;exitDx=0;exitDy=0;exitPerimeter=0;entryX=0.5;entryY=0;entryDx=0;entryDy=0;entryPerimeter=0;" edge="1" parent="1" source="e-boNH3dfIIxHlk2X5r0-53" target="e-boNH3dfIIxHlk2X5r0-82">
          <mxGeometry width="50" height="50" relative="1" as="geometry">
            <mxPoint x="2660" y="1260" as="sourcePoint" />
            <mxPoint x="2510" y="1400" as="targetPoint" />
          </mxGeometry>
        </mxCell>
        <mxCell id="e-boNH3dfIIxHlk2X5r0-84" value="" style="endArrow=classic;html=1;rounded=0;exitX=0.5;exitY=1;exitDx=0;exitDy=0;exitPerimeter=0;entryX=0.5;entryY=1;entryDx=0;entryDy=0;entryPerimeter=0;" edge="1" parent="1" source="e-boNH3dfIIxHlk2X5r0-53" target="e-boNH3dfIIxHlk2X5r0-69">
          <mxGeometry width="50" height="50" relative="1" as="geometry">
            <mxPoint x="1483.5" y="952" as="sourcePoint" />
            <mxPoint x="1433.5" y="1075" as="targetPoint" />
            <Array as="points">
              <mxPoint x="2163.5" y="1090" />
            </Array>
          </mxGeometry>
        </mxCell>
        <mxCell id="e-boNH3dfIIxHlk2X5r0-85" value="" style="endArrow=classic;html=1;rounded=0;entryX=0.5;entryY=0;entryDx=0;entryDy=0;entryPerimeter=0;exitX=0.35;exitY=1.014;exitDx=0;exitDy=0;exitPerimeter=0;" edge="1" parent="1" source="e-boNH3dfIIxHlk2X5r0-54" target="e-boNH3dfIIxHlk2X5r0-69">
          <mxGeometry width="50" height="50" relative="1" as="geometry">
            <mxPoint x="2490" y="970" as="sourcePoint" />
            <mxPoint x="2673.5" y="1210" as="targetPoint" />
            <Array as="points">
              <mxPoint x="2487" y="1090" />
            </Array>
          </mxGeometry>
        </mxCell>
        <object placeholders="1" c4Type="User Database" c4Container="Container" c4Technology="MongoDB" c4Description="Stores information about users" label="&lt;font style=&quot;font-size: 16px&quot;&gt;&lt;b&gt;%c4Type%&lt;/b&gt;&lt;/font&gt;&lt;div&gt;[%c4Container%:&amp;nbsp;%c4Technology%]&lt;/div&gt;&lt;br&gt;&lt;div&gt;&lt;font style=&quot;font-size: 11px&quot;&gt;&lt;font color=&quot;#E6E6E6&quot;&gt;%c4Description%&lt;/font&gt;&lt;/div&gt;" id="e-boNH3dfIIxHlk2X5r0-87">
          <mxCell style="shape=cylinder3;size=15;whiteSpace=wrap;html=1;boundedLbl=1;rounded=0;labelBackgroundColor=none;fillColor=#23A2D9;fontSize=12;fontColor=#ffffff;align=center;strokeColor=#0E7DAD;metaEdit=1;points=[[0.5,0,0],[1,0.25,0],[1,0.5,0],[1,0.75,0],[0.5,1,0],[0,0.75,0],[0,0.5,0],[0,0.25,0]];resizable=0;" vertex="1" parent="1">
            <mxGeometry x="2396.5" y="1860" width="240" height="120" as="geometry" />
          </mxCell>
        </object>
        <mxCell id="e-boNH3dfIIxHlk2X5r0-88" value="" style="endArrow=classic;html=1;rounded=0;entryX=0.5;entryY=0;entryDx=0;entryDy=0;entryPerimeter=0;exitX=0.5;exitY=1;exitDx=0;exitDy=0;exitPerimeter=0;" edge="1" parent="1" source="e-boNH3dfIIxHlk2X5r0-54" target="e-boNH3dfIIxHlk2X5r0-143">
          <mxGeometry width="50" height="50" relative="1" as="geometry">
            <mxPoint x="2560" y="1000" as="sourcePoint" />
            <mxPoint x="1020" y="1390" as="targetPoint" />
          </mxGeometry>
        </mxCell>
        <mxCell id="e-boNH3dfIIxHlk2X5r0-122" value="&lt;font color=&quot;#000000&quot; size=&quot;1&quot; style=&quot;&quot;&gt;&lt;b style=&quot;font-size: 27px;&quot;&gt;Kubernetes&lt;/b&gt;&lt;/font&gt;" style="sketch=0;dashed=0;connectable=0;html=1;fillColor=#5184F3;strokeColor=none;shape=mxgraph.gcp2.kubernetes_logo;part=1;labelPosition=right;verticalLabelPosition=middle;align=left;verticalAlign=middle;spacingLeft=5;fontColor=#999999;fontSize=12;" vertex="1" parent="1">
          <mxGeometry x="850" y="500" width="113.4" height="110" as="geometry" />
        </mxCell>
        <mxCell id="e-boNH3dfIIxHlk2X5r0-126" value="" style="endArrow=classic;html=1;rounded=0;exitX=0;exitY=0.5;exitDx=0;exitDy=0;exitPerimeter=0;entryX=0.5;entryY=0;entryDx=0;entryDy=0;entryPerimeter=0;" edge="1" parent="1" source="e-boNH3dfIIxHlk2X5r0-48" target="e-boNH3dfIIxHlk2X5r0-70">
          <mxGeometry width="50" height="50" relative="1" as="geometry">
            <mxPoint x="1890" y="660" as="sourcePoint" />
            <mxPoint x="1310" y="600" as="targetPoint" />
            <Array as="points">
              <mxPoint x="1040" y="640" />
            </Array>
          </mxGeometry>
        </mxCell>
        <mxCell id="e-boNH3dfIIxHlk2X5r0-127" value="" style="endArrow=classic;html=1;rounded=0;entryX=0.5;entryY=0;entryDx=0;entryDy=0;entryPerimeter=0;" edge="1" parent="1" target="e-boNH3dfIIxHlk2X5r0-43">
          <mxGeometry width="50" height="50" relative="1" as="geometry">
            <mxPoint x="1430" y="650" as="sourcePoint" />
            <mxPoint x="1230" y="580" as="targetPoint" />
          </mxGeometry>
        </mxCell>
        <mxCell id="e-boNH3dfIIxHlk2X5r0-129" value="" style="endArrow=classic;html=1;rounded=0;entryX=0.5;entryY=0;entryDx=0;entryDy=0;entryPerimeter=0;" edge="1" parent="1" target="e-boNH3dfIIxHlk2X5r0-49">
          <mxGeometry width="50" height="50" relative="1" as="geometry">
            <mxPoint x="1780" y="650" as="sourcePoint" />
            <mxPoint x="1780" y="782" as="targetPoint" />
          </mxGeometry>
        </mxCell>
        <mxCell id="e-boNH3dfIIxHlk2X5r0-130" value="" style="endArrow=classic;html=1;rounded=0;entryX=0.5;entryY=0;entryDx=0;entryDy=0;entryPerimeter=0;" edge="1" parent="1" target="e-boNH3dfIIxHlk2X5r0-54">
          <mxGeometry width="50" height="50" relative="1" as="geometry">
            <mxPoint x="2517" y="650" as="sourcePoint" />
            <mxPoint x="2073.5" y="690" as="targetPoint" />
            <Array as="points" />
          </mxGeometry>
        </mxCell>
        <mxCell id="e-boNH3dfIIxHlk2X5r0-132" value="" style="endArrow=classic;html=1;rounded=0;entryX=0.5;entryY=0;entryDx=0;entryDy=0;entryPerimeter=0;exitX=1;exitY=0.5;exitDx=0;exitDy=0;exitPerimeter=0;" edge="1" parent="1" source="e-boNH3dfIIxHlk2X5r0-48" target="e-boNH3dfIIxHlk2X5r0-51">
          <mxGeometry width="50" height="50" relative="1" as="geometry">
            <mxPoint x="2835" y="430" as="sourcePoint" />
            <mxPoint x="2835" y="570" as="targetPoint" />
            <Array as="points">
              <mxPoint x="2840" y="650" />
            </Array>
          </mxGeometry>
        </mxCell>
        <mxCell id="e-boNH3dfIIxHlk2X5r0-133" value="" style="endArrow=classic;html=1;rounded=0;entryX=0.5;entryY=0;entryDx=0;entryDy=0;entryPerimeter=0;" edge="1" parent="1" target="e-boNH3dfIIxHlk2X5r0-53">
          <mxGeometry width="50" height="50" relative="1" as="geometry">
            <mxPoint x="2164" y="650" as="sourcePoint" />
            <mxPoint x="2163.5" y="790" as="targetPoint" />
          </mxGeometry>
        </mxCell>
        <mxCell id="e-boNH3dfIIxHlk2X5r0-135" value="" style="endArrow=classic;html=1;rounded=0;exitX=0.5;exitY=1;exitDx=0;exitDy=0;exitPerimeter=0;entryX=0.5;entryY=0;entryDx=0;entryDy=0;entryPerimeter=0;" edge="1" parent="1" source="e-boNH3dfIIxHlk2X5r0-42" target="e-boNH3dfIIxHlk2X5r0-48">
          <mxGeometry width="50" height="50" relative="1" as="geometry">
            <mxPoint x="1500" y="280" as="sourcePoint" />
            <mxPoint x="1550" y="230" as="targetPoint" />
          </mxGeometry>
        </mxCell>
        <mxCell id="5MnMHR7iOQLMIiEP4UsR-1051" value="&lt;b style=&quot;font-size: 16px;&quot;&gt;MongoDB&lt;br&gt;Cloud&lt;/b&gt;" style="dashed=0;outlineConnect=0;html=1;align=center;labelPosition=center;verticalLabelPosition=bottom;verticalAlign=top;shape=mxgraph.webicons.mongodb;gradientColor=#DFDEDE;aspect=fixed;" parent="1" vertex="1">
          <mxGeometry x="1154" y="1780" width="89.07843137254902" height="89.07843137254902" as="geometry" />
        </mxCell>
        <mxCell id="e-boNH3dfIIxHlk2X5r0-140" value="" style="endArrow=classic;html=1;rounded=0;exitX=0;exitY=0.5;exitDx=0;exitDy=0;exitPerimeter=0;entryX=0.75;entryY=0;entryDx=0;entryDy=0;entryPerimeter=0;" edge="1" parent="1" source="e-boNH3dfIIxHlk2X5r0-53" target="e-boNH3dfIIxHlk2X5r0-71">
          <mxGeometry width="50" height="50" relative="1" as="geometry">
            <mxPoint x="2064" y="875" as="sourcePoint" />
            <mxPoint x="1070" y="1380" as="targetPoint" />
            <Array as="points">
              <mxPoint x="2000" y="875" />
              <mxPoint x="2000" y="1300" />
              <mxPoint x="1070" y="1300" />
            </Array>
          </mxGeometry>
        </mxCell>
        <object placeholders="1" c4Name="In-memory Cache" c4Type="Container: Redis" c4Description="Cache popular search results in Redis for better performance." label="&lt;font style=&quot;font-size: 16px&quot;&gt;&lt;b&gt;%c4Name%&lt;/b&gt;&lt;/font&gt;&lt;div&gt;[%c4Type%]&lt;/div&gt;&lt;br&gt;&lt;div&gt;&lt;font style=&quot;font-size: 11px&quot;&gt;&lt;font color=&quot;#cccccc&quot;&gt;%c4Description%&lt;/font&gt;&lt;/div&gt;" id="e-boNH3dfIIxHlk2X5r0-141">
          <mxCell style="rounded=1;whiteSpace=wrap;html=1;labelBackgroundColor=none;fillColor=#1061B0;fontColor=#ffffff;align=center;arcSize=0;strokeColor=#0D5091;metaEdit=1;resizable=0;points=[[0.25,0,0],[0.5,0,0],[0.75,0,0],[1,0.25,0],[1,0.5,0],[1,0.75,0],[0.75,1,0],[0.5,1,0],[0.25,1,0],[0,0.75,0],[0,0.5,0],[0,0.25,0]];" vertex="1" parent="1">
            <mxGeometry x="2720" y="1370" width="240" height="120" as="geometry" />
          </mxCell>
        </object>
        <mxCell id="e-boNH3dfIIxHlk2X5r0-142" value="" style="endArrow=classic;html=1;rounded=0;exitX=0.5;exitY=1;exitDx=0;exitDy=0;exitPerimeter=0;entryX=0.5;entryY=0;entryDx=0;entryDy=0;entryPerimeter=0;" edge="1" parent="1" source="e-boNH3dfIIxHlk2X5r0-51" target="e-boNH3dfIIxHlk2X5r0-141">
          <mxGeometry width="50" height="50" relative="1" as="geometry">
            <mxPoint x="2430" y="1300" as="sourcePoint" />
            <mxPoint x="2480" y="1250" as="targetPoint" />
          </mxGeometry>
        </mxCell>
        <object placeholders="1" c4Name="In-memory Cache" c4Type="Container: Redis" c4Description="Cache frequently accessed user data in Redis to reduce database queries and improve performance." label="&lt;font style=&quot;font-size: 16px&quot;&gt;&lt;b&gt;%c4Name%&lt;/b&gt;&lt;/font&gt;&lt;div&gt;[%c4Type%]&lt;/div&gt;&lt;br&gt;&lt;div&gt;&lt;font style=&quot;font-size: 11px&quot;&gt;&lt;font color=&quot;#cccccc&quot;&gt;%c4Description%&lt;/font&gt;&lt;/div&gt;" id="e-boNH3dfIIxHlk2X5r0-143">
          <mxCell style="rounded=1;whiteSpace=wrap;html=1;labelBackgroundColor=none;fillColor=#1061B0;fontColor=#ffffff;align=center;arcSize=0;strokeColor=#0D5091;metaEdit=1;resizable=0;points=[[0.25,0,0],[0.5,0,0],[0.75,0,0],[1,0.25,0],[1,0.5,0],[1,0.75,0],[0.75,1,0],[0.5,1,0],[0.25,1,0],[0,0.75,0],[0,0.5,0],[0,0.25,0]];" vertex="1" parent="1">
            <mxGeometry x="2396.5" y="1370" width="240" height="120" as="geometry" />
          </mxCell>
        </object>
        <mxCell id="e-boNH3dfIIxHlk2X5r0-144" value="" style="endArrow=classic;html=1;rounded=0;exitX=0.5;exitY=1;exitDx=0;exitDy=0;exitPerimeter=0;entryX=0.5;entryY=0;entryDx=0;entryDy=0;entryPerimeter=0;" edge="1" parent="1" source="e-boNH3dfIIxHlk2X5r0-143" target="e-boNH3dfIIxHlk2X5r0-87">
          <mxGeometry width="50" height="50" relative="1" as="geometry">
            <mxPoint x="2120" y="1440" as="sourcePoint" />
            <mxPoint x="2170" y="1390" as="targetPoint" />
          </mxGeometry>
        </mxCell>
        <object placeholders="1" c4Type="Object Storage" c4Container="Container" c4Technology="Firebase" c4Description="Stores images/videos as blobs" label="&lt;font style=&quot;font-size: 16px&quot;&gt;&lt;b&gt;%c4Type%&lt;/b&gt;&lt;/font&gt;&lt;div&gt;[%c4Container%:&amp;nbsp;%c4Technology%]&lt;/div&gt;&lt;br&gt;&lt;div&gt;&lt;font style=&quot;font-size: 11px&quot;&gt;&lt;font color=&quot;#E6E6E6&quot;&gt;%c4Description%&lt;/font&gt;&lt;/div&gt;" id="e-boNH3dfIIxHlk2X5r0-147">
          <mxCell style="shape=cylinder3;size=15;whiteSpace=wrap;html=1;boundedLbl=1;rounded=0;labelBackgroundColor=none;fillColor=#23A2D9;fontSize=12;fontColor=#ffffff;align=center;strokeColor=#0E7DAD;metaEdit=1;points=[[0.5,0,0],[1,0.25,0],[1,0.5,0],[1,0.75,0],[0.5,1,0],[0,0.75,0],[0,0.5,0],[0,0.25,0]];resizable=0;" vertex="1" parent="1">
            <mxGeometry x="1850" y="2150" width="240" height="120" as="geometry" />
          </mxCell>
        </object>
        <mxCell id="e-boNH3dfIIxHlk2X5r0-148" value="" style="endArrow=classic;html=1;rounded=0;entryX=0.5;entryY=0;entryDx=0;entryDy=0;entryPerimeter=0;exitX=1;exitY=0.5;exitDx=0;exitDy=0;exitPerimeter=0;" edge="1" parent="1" source="e-boNH3dfIIxHlk2X5r0-49" target="e-boNH3dfIIxHlk2X5r0-147">
          <mxGeometry width="50" height="50" relative="1" as="geometry">
            <mxPoint x="1970" y="890" as="sourcePoint" />
            <mxPoint x="2140" y="1430" as="targetPoint" />
            <Array as="points">
              <mxPoint x="1970" y="867" />
            </Array>
          </mxGeometry>
        </mxCell>
      </root>
    </mxGraphModel>
  </diagram>
</mxfile>
